<?xml version="1.0" encoding="UTF-8" standalone="no"?>

<svg xmlns="http://www.w3.org/2000/svg" xmlns:xlink="http://www.w3.org/1999/xlink" width="700" height="525" viewBox="0 0 700 525">

<defs>
	<clipPath id="clipPath_E1">
		<rect x="0" y="0" width="700" height="525" />
	</clipPath>
</defs>

<g style="clip-path: url(#clipPath_E1);" stroke-linecap="round">
	<rect x="0" y="0" width="700" height="525" fill="#ffffff" fill-opacity="1"/>
	<rect x="0" y="0" width="1400" height="1050" fill="#ffffff" fill-opacity="1" stroke="none" />
	<path fill="none" stroke="#405860" stroke-opacity="1" stroke-width="1.2" d="M 0 462.5 L 700 462.5 " />
	<path fill="none" stroke="#405860" stroke-opacity="1" stroke-width="1.2" d="M 120.5 0 L 120.5 525 " />
	<path fill="none" stroke="#405860" stroke-opacity="1" stroke-width="1" d="M 120.5 458.5 L 120.5 466.5 " />
	<path fill="none" stroke="#405860" stroke-opacity="1" stroke-width="1" d="M 600.5 458.5 L 600.5 466.5 " />
	<path fill="none" stroke="#405860" stroke-opacity="1" stroke-width="1" d="M 116.5 -17.5 L 124.5 -17.5 " />
	<path fill="none" stroke="#405860" stroke-opacity="1" stroke-width="1" d="M 116.5 462.5 L 124.5 462.5 " />
	<path fill="none" stroke="#405860" stroke-opacity="1" stroke-width="1" d="M -119.5 460.5 L -119.5 464.5 " />
	<path fill="none" stroke="#405860" stroke-opacity="1" stroke-width="1" d="M 120.5 460.5 L 120.5 464.5 " />
	<path fill="none" stroke="#405860" stroke-opacity="1" stroke-width="1" d="M 360.5 460.5 L 360.5 464.5 " />
	<path fill="none" stroke="#405860" stroke-opacity="1" stroke-width="1" d="M 600.5 460.5 L 600.5 464.5 " />
	<path fill="none" stroke="#405860" stroke-opacity="1" stroke-width="1" d="M 118.5 -17.5 L 122.5 -17.5 " />
	<path fill="none" stroke="#405860" stroke-opacity="1" stroke-width="1" d="M 118.5 222.5 L 122.5 222.5 " />
	<path fill="none" stroke="#405860" stroke-opacity="1" stroke-width="1" d="M 118.5 462.5 L 122.5 462.5 " />
	<path fill="none" stroke="#405860" stroke-opacity="1" stroke-width="1" d="M -23.5 461.5 L -23.5 463.5 " />
	<path fill="none" stroke="#405860" stroke-opacity="1" stroke-width="1" d="M 24.5 461.5 L 24.5 463.5 " />
	<path fill="none" stroke="#405860" stroke-opacity="1" stroke-width="1" d="M 72.5 461.5 L 72.5 463.5 " />
	<path fill="none" stroke="#405860" stroke-opacity="1" stroke-width="1" d="M 120.5 461.5 L 120.5 463.5 " />
	<path fill="none" stroke="#405860" stroke-opacity="1" stroke-width="1" d="M 168.5 461.5 L 168.5 463.5 " />
	<path fill="none" stroke="#405860" stroke-opacity="1" stroke-width="1" d="M 216.5 461.5 L 216.5 463.5 " />
	<path fill="none" stroke="#405860" stroke-opacity="1" stroke-width="1" d="M 264.5 461.5 L 264.5 463.5 " />
	<path fill="none" stroke="#405860" stroke-opacity="1" stroke-width="1" d="M 312.5 461.5 L 312.5 463.5 " />
	<path fill="none" stroke="#405860" stroke-opacity="1" stroke-width="1" d="M 360.5 461.5 L 360.5 463.5 " />
	<path fill="none" stroke="#405860" stroke-opacity="1" stroke-width="1" d="M 408.5 461.5 L 408.5 463.5 " />
	<path fill="none" stroke="#405860" stroke-opacity="1" stroke-width="1" d="M 456.5 461.5 L 456.5 463.5 " />
	<path fill="none" stroke="#405860" stroke-opacity="1" stroke-width="1" d="M 504.5 461.5 L 504.5 463.5 " />
	<path fill="none" stroke="#405860" stroke-opacity="1" stroke-width="1" d="M 552.5 461.5 L 552.5 463.5 " />
	<path fill="none" stroke="#405860" stroke-opacity="1" stroke-width="1" d="M 600.5 461.5 L 600.5 463.5 " />
	<path fill="none" stroke="#405860" stroke-opacity="1" stroke-width="1" d="M 648.5 461.5 L 648.5 463.5 " />
	<path fill="none" stroke="#405860" stroke-opacity="1" stroke-width="1" d="M 696.5 461.5 L 696.5 463.5 " />
	<path fill="none" stroke="#405860" stroke-opacity="1" stroke-width="1" d="M 119.5 -17.5 L 121.5 -17.5 " />
	<path fill="none" stroke="#405860" stroke-opacity="1" stroke-width="1" d="M 119.5 30.5 L 121.5 30.5 " />
	<path fill="none" stroke="#405860" stroke-opacity="1" stroke-width="1" d="M 119.5 78.5 L 121.5 78.5 " />
	<path fill="none" stroke="#405860" stroke-opacity="1" stroke-width="1" d="M 119.5 126.5 L 121.5 126.5 " />
	<path fill="none" stroke="#405860" stroke-opacity="1" stroke-width="1" d="M 119.5 174.5 L 121.5 174.5 " />
	<path fill="none" stroke="#405860" stroke-opacity="1" stroke-width="1" d="M 119.5 222.5 L 121.5 222.5 " />
	<path fill="none" stroke="#405860" stroke-opacity="1" stroke-width="1" d="M 119.5 270.5 L 121.5 270.5 " />
	<path fill="none" stroke="#405860" stroke-opacity="1" stroke-width="1" d="M 119.5 318.5 L 121.5 318.5 " />
	<path fill="none" stroke="#405860" stroke-opacity="1" stroke-width="1" d="M 119.5 366.5 L 121.5 366.5 " />
	<path fill="none" stroke="#405860" stroke-opacity="1" stroke-width="1" d="M 119.5 414.5 L 121.5 414.5 " />
	<path fill="none" stroke="#405860" stroke-opacity="1" stroke-width="1" d="M 119.5 462.5 L 121.5 462.5 " />
	<path fill="none" stroke="#405860" stroke-opacity="1" stroke-width="1" d="M 119.5 510.5 L 121.5 510.5 " />
	<text fill="#405860" fill-opacity="1" x="698" y="474" style="font-size: 16px; font-family:descartesJS_serif,Times,'Times New Roman',serif; font-weight:bold; font-style:italic; ">x </text>
	<text fill="#405860" fill-opacity="1" x="118" y="12" style="font-size: 16px; font-family:descartesJS_serif,Times,'Times New Roman',serif; font-weight:bold; font-style:italic; ">y </text>
	<path fill="none" stroke="#000000" stroke-opacity="1" stroke-width="2" d="M 117 460 L 491 460 L 488 452 L 504 463 L 488 474 L 491 466 L 117 466 L 117 460 " />
	<path fill="#000000" fill-opacity="1" stroke="none" d="M 117 460 L 491 460 L 488 452 L 504 463 L 488 474 L 491 466 L 117 466 L 117 460 " />
	<text fill="#20303a" fill-opacity="1" x="504" y="490" style="font-size: 30px; font-family:descartesJS_serif,Times,'Times New Roman',serif; font-style:italic; ">(1,0) </text>
	<path fill="none" stroke="#20303a" stroke-opacity="1" stroke-width="2" d="M 117 466 L 117.00000000000003 92 L 109.00000000000003 95 L 120.00000000000003 79 L 131.00000000000003 95 L 123.00000000000003 92 L 123 466 L 117 466 " />
	<path fill="#000000" fill-opacity="1" stroke="none" d="M 117 466 L 117.00000000000003 92 L 109.00000000000003 95 L 120.00000000000003 79 L 131.00000000000003 95 L 123.00000000000003 92 L 123 466 L 117 466 " />
	<text fill="#20303a" fill-opacity="1" x="62.51953125" y="71" style="font-size: 30px; font-family:descartesJS_serif,Times,'Times New Roman',serif; font-style:italic; ">(0,1) </text>
	<path fill="none" stroke="#20303a" stroke-opacity="1" stroke-width="1" d="M 408 463 A 288 288 0 0 0 120.00000000000001 175" />
	<path fill="none" stroke="#20303a" stroke-opacity="1" stroke-width="2" d="M 125 175 L 128 175 L 131 178 L 125 175 L 131 172 L 128 175 L 125 175 L 125 175 " />
	<path fill="#000000" fill-opacity="1" stroke="none" d="M 125 175 L 128 175 L 131 178 L 125 175 L 131 172 L 128 175 L 125 175 L 125 175 " />
	<text fill="#000000" fill-opacity="1" x="325.8779296875" y="256.5" style="font-size: 30px; font-family:descartesJS_serif,Times,'Times New Roman',serif; font-style:italic; ">+ </text>
	<path fill="none" stroke="#20303a" stroke-opacity="1" stroke-width="1" d="M 264 463 A 144 144 0 0 0 120.00000000000001 319" />
	<path fill="none" stroke="#20303a" stroke-opacity="1" stroke-width="2" d="M 264 457 L 264 454 L 267 451 L 264 457 L 261 451 L 264 454 L 264 457 L 264 457 " />
	<path fill="#000000" fill-opacity="1" stroke="none" d="M 264 457 L 264 454 L 267 451 L 264 457 L 261 451 L 264 454 L 264 457 L 264 457 " />
	<text fill="#000000" fill-opacity="1" x="193.8779296875" y="388.5" style="font-size: 30px; font-family:descartesJS_serif,Times,'Times New Roman',serif; font-style:italic; ">- </text>
</g>


</svg>
