<svg xmlns="http://www.w3.org/2000/svg" xmlns:xlink="http://www.w3.org/1999/xlink" width="757" height="976"><defs><linearGradient id="a"><stop offset="0" stop-color="#55efc4"/><stop offset="1" stop-color="#7ed6df"/></linearGradient><linearGradient xlink:href="#a" id="b" x1="-65.967" y1="-1740.589" x2="-65.967" y2="-764.589" gradientUnits="userSpaceOnUse"/></defs><path fill="url(#b)" d="M-65.967-1740.589h757v976h-757z" transform="translate(65.967 1740.59)"/><g transform="matrix(5.62987 0 0 5.62987 -3210.54 -6313.16)"><path fill-opacity=".05" d="M593 1217h55v55h-55z"/><path fill-opacity=".15" d="M648 1217h34v34h-34z"/><path fill-opacity=".25" d="M661 1251h21v21h-21z"/><path fill-opacity=".35" d="M648 1259h13v13h-13z"/><path fill-opacity=".45" d="M648 1251h8v8h-8z"/><path fill-opacity=".55" d="M656 1251h5v5h-5z"/><path fill-opacity=".65" d="M658 1256h3v3h-3z"/><path fill-opacity=".75" d="M656 1257h2v2h-2z"/><path fill-opacity=".85" d="M656 1256h1v1h-1z"/><path fill="#010000" fill-opacity=".95" d="M657 1256h1v1h-1z"/><g fill="none" stroke-width="1.5" stroke-linecap="round"><path d="M620.64 1244.641c-4.51-4.51-4.788-12.038.005-16.82 2.802-2.792 7.396-3.004 10.398 0" stroke="#1abc9c"/><path d="M620.64 1244.641c-6.378 0-11.897-5.126-11.89-11.896.007-3.956 3.106-7.354 7.35-7.354 2.63 0 4.54 2.138 4.54 4.542 0 1.47-1.14 2.812-2.81 2.812-.915 0-1.73-.824-1.73-1.73 0-.592.5-1.082 1.082-1.082.342 0 .648.334.648.649a.443.443 0 01-.432.433c-.102 0-.216-.115-.216-.217 0-.136.096-.216.216-.216" stroke="#f1c40f"/><path d="M620.64 1244.641c-4.51 4.51-12.037 4.788-16.82 0-2.79-2.804-3.003-7.396-.001-10.398 1.86-1.86 4.722-1.698 6.422 0 1.04 1.04 1.181 2.796.001 3.976-.647.647-1.806.64-2.447 0a1.095 1.095 0 010-1.53c.242-.242.695-.222.918 0 .16.16.166.446 0 .612-.072.072-.234.072-.306 0-.096-.097-.085-.22 0-.306" stroke="#e67e22"/><path d="M620.64 1244.641c0 6.379-5.125 11.898-11.895 11.89-3.956-.01-7.354-3.105-7.354-7.35 0-2.63 2.138-4.54 4.542-4.54 1.47 0 2.812 1.141 2.812 2.81 0 .916-.824 1.73-1.73 1.73a1.095 1.095 0 01-1.082-1.08c0-.343.334-.65.649-.65.226 0 .432.197.432.433 0 .102-.114.216-.216.216-.136 0-.216-.096-.216-.216" stroke="#e74c3c"/><path d="M620.641 1244.643c4.511 4.511 4.789 12.038-.004 16.82-2.802 2.792-7.396 3.004-10.397 0-1.86-1.86-1.699-4.722 0-6.422 1.04-1.04 2.796-1.181 3.976-.001.647.647.64 1.806 0 2.447a1.095 1.095 0 01-1.53 0c-.241-.242-.222-.695 0-.918a.443.443 0 01.612 0c.072.073.072.234 0 .306-.096.096-.22.085-.305 0" stroke="#34495e"/><path d="M620.64 1244.641c6.38 0 11.898 5.126 11.892 11.896-.007 3.956-3.106 7.354-7.351 7.354-2.63 0-4.54-2.138-4.54-4.542 0-1.47 1.141-2.812 2.81-2.812.915 0 1.73.824 1.73 1.73 0 .592-.499 1.082-1.081 1.082-.342 0-.649-.334-.649-.65 0-.226.197-.432.433-.432.102 0 .216.115.216.217 0 .136-.096.216-.216.216" stroke="#9b59b6"/><path d="M620.641 1244.643c4.51-4.51 12.038-4.788 16.82 0 2.79 2.805 3.004 7.397.002 10.398-1.86 1.86-4.722 1.699-6.422 0-1.04-1.04-1.181-2.795-.001-3.975.647-.648 1.806-.64 2.446 0a1.095 1.095 0 010 1.53c-.241.241-.694.222-.917-.001a.443.443 0 010-.612c.072-.073.234-.073.306 0 .096.096.085.221 0 .306" stroke="#3498db"/><path d="M620.64 1244.641c0-6.38 5.127-11.898 11.897-11.89 3.956.01 7.354 3.105 7.354 7.35 0 2.63-2.138 4.54-4.542 4.54-1.47 0-2.812-1.141-2.812-2.81 0-.916.824-1.73 1.73-1.73.592 0 1.082.499 1.082 1.08 0 .343-.334.65-.65.65a.443.443 0 01-.432-.433c0-.102.114-.216.216-.216.136 0 .217.096.217.216" stroke="#2ecc71"/><path d="M631.043 1227.821c1.859 1.86 1.698 4.722-.001 6.422-1.04 1.04-2.796 1.182-3.976.001-.647-.647-.64-1.805 0-2.446a1.095 1.095 0 011.53 0c.241.241.222.694 0 .917a.443.443 0 01-.612 0c-.072-.073-.072-.234 0-.306.096-.096.22-.085.306 0" stroke="#1abc9c"/></g><circle cx="620.641" cy="1244.641" r="1.776" fill="#ecf0f1"/></g></svg>